<svg width="62" height="61" viewBox="0 0 62 61" xmlns="http://www.w3.org/2000/svg"><title>placeholder</title><g fill="#4EBDF4"><path d="M30.938 26.584c3.859 0 7-3.141 7-7s-3.141-7-7-7-7 3.141-7 7 3.14 7 7 7zm0-12c2.757 0 5 2.243 5 5s-2.243 5-5 5-5-2.243-5-5 2.243-5 5-5z"/><path d="M50.216 37.584h-7.161l3.047-4.4c5.755-7.671 4.922-20.28-1.781-26.982A19.049 19.049 0 0 0 30.761.585a19.052 19.052 0 0 0-13.56 5.617c-6.703 6.702-7.536 19.312-1.804 26.952l3.068 4.431h-7.513L0 60.584h61.168l-10.952-23zm-33.196-5.6c-5.199-6.933-4.454-18.32 1.596-24.369a17.066 17.066 0 0 1 12.146-5.031c4.588 0 8.901 1.787 12.146 5.031 6.05 6.049 6.795 17.437 1.573 24.399l-13.72 19.813-9.863-14.243-3.878-5.6zm-4.804 7.6h7.634l10.911 15.757 10.91-15.757h7.281l9.048 19H3.168l9.048-19z"/></g></svg>